<svg width="283" height="30" viewBox="0 0 283 30" fill="none" xmlns="http://www.w3.org/2000/svg">
<path d="M1.28 29C0.986667 29 0.733333 28.8933 0.52 28.68C0.306667 28.4667 0.2 28.2133 0.2 27.92V2.08C0.2 1.78667 0.306667 1.53333 0.52 1.32C0.733333 1.10666 0.986667 0.999998 1.28 0.999998H13.12C16.96 0.999998 19.96 1.86666 22.12 3.6C24.28 5.33333 25.36 7.70667 25.36 10.72C25.36 12.5067 24.9467 14.0667 24.12 15.4C23.32 16.7067 22.2933 17.76 21.04 18.56L25.96 27.68C26.04 27.84 26.08 27.9867 26.08 28.12C26.08 28.36 25.9867 28.5733 25.8 28.76C25.64 28.92 25.44 29 25.2 29H17C16.4667 29 16.0667 28.8667 15.8 28.6C15.5333 28.3333 15.36 28.1067 15.28 27.92L11.84 20.28H10.2V27.92C10.2 28.2133 10.0933 28.4667 9.88 28.68C9.66667 28.8933 9.41333 29 9.12 29H1.28ZM10.2 12.68H13.12C13.7333 12.68 14.1867 12.48 14.48 12.08C14.8 11.6533 14.96 11.1733 14.96 10.64C14.96 10.1067 14.8133 9.61333 14.52 9.16C14.2533 8.68 13.7867 8.44 13.12 8.44H10.2V12.68ZM30.1472 29C29.8539 29 29.6005 28.8933 29.3872 28.68C29.1739 28.4667 29.0672 28.2133 29.0672 27.92V2.08C29.0672 1.78667 29.1739 1.53333 29.3872 1.32C29.6005 1.10666 29.8539 0.999998 30.1472 0.999998H38.3072C38.6005 0.999998 38.8539 1.10666 39.0672 1.32C39.2805 1.53333 39.3872 1.78667 39.3872 2.08V27.92C39.3872 28.2133 39.2805 28.4667 39.0672 28.68C38.8539 28.8933 38.6005 29 38.3072 29H30.1472ZM55.4738 29.4C52.5138 29.4 50.0738 29 48.1538 28.2C46.2338 27.4 44.7938 26.3467 43.8338 25.04C42.8738 23.7333 42.3671 22.3467 42.3138 20.88C42.3138 20.64 42.3938 20.44 42.5538 20.28C42.7404 20.0933 42.9538 20 43.1938 20H50.7938C51.2204 20 51.5404 20.0667 51.7538 20.2C51.9938 20.3067 52.2471 20.4667 52.5138 20.68C52.7804 20.8667 53.0471 21.04 53.3138 21.2C53.6071 21.3333 53.9271 21.44 54.2738 21.52C54.6471 21.5733 55.0471 21.6 55.4738 21.6C56.3804 21.6 57.1004 21.5067 57.6338 21.32C58.1938 21.1067 58.4738 20.8267 58.4738 20.48C58.4738 20.16 58.3138 19.8933 57.9938 19.68C57.7004 19.4667 57.1804 19.28 56.4338 19.12C55.6871 18.9333 54.6471 18.76 53.3138 18.6C51.2071 18.3067 49.3804 17.8133 47.8338 17.12C46.2871 16.4267 45.0871 15.48 44.2337 14.28C43.4071 13.0533 42.9938 11.56 42.9938 9.8C42.9938 7.98667 43.5004 6.38667 44.5138 5C45.5538 3.61333 46.9804 2.53333 48.7938 1.76C50.6338 0.986665 52.7671 0.599998 55.1938 0.599998C57.1938 0.599998 58.9671 0.866665 60.5138 1.4C62.0604 1.90667 63.3671 2.58667 64.4338 3.44C65.5004 4.26666 66.3138 5.16 66.8738 6.12C67.4338 7.08 67.7271 8 67.7538 8.88C67.7538 9.12 67.6604 9.33333 67.4738 9.52C67.3138 9.68 67.1271 9.76 66.9138 9.76H58.9138C58.5404 9.76 58.2338 9.70667 57.9938 9.6C57.7804 9.49333 57.5538 9.33333 57.3138 9.12C57.1804 8.98667 56.9271 8.84 56.5538 8.68C56.2071 8.49333 55.7538 8.4 55.1938 8.4C54.5271 8.4 54.0338 8.50667 53.7138 8.72C53.4204 8.90667 53.2738 9.17333 53.2738 9.52C53.2738 9.76 53.3938 9.98667 53.6338 10.2C53.8738 10.4133 54.3138 10.6 54.9538 10.76C55.5938 10.92 56.5138 11.08 57.7138 11.24C60.3804 11.56 62.5138 12.08 64.1138 12.8C65.7404 13.4933 66.9138 14.4267 67.6338 15.6C68.3804 16.7733 68.7538 18.2267 68.7538 19.96C68.7538 21.9067 68.1671 23.5867 66.9938 25C65.8471 26.4133 64.2738 27.5067 62.2738 28.28C60.2738 29.0267 58.0071 29.4 55.4738 29.4ZM72.7644 29C72.471 29 72.2177 28.8933 72.0044 28.68C71.791 28.4667 71.6844 28.2133 71.6844 27.92V2.08C71.6844 1.78667 71.791 1.53333 72.0044 1.32C72.2177 1.10666 72.471 0.999998 72.7644 0.999998H93.2844C93.5777 0.999998 93.831 1.10666 94.0444 1.32C94.2577 1.53333 94.3644 1.78667 94.3644 2.08V7.72C94.3644 8.01333 94.2577 8.26667 94.0444 8.48C93.831 8.69333 93.5777 8.8 93.2844 8.8H81.2844V11.32H92.4044C92.6977 11.32 92.951 11.4267 93.1644 11.64C93.3777 11.8533 93.4844 12.1067 93.4844 12.4V17.6C93.4844 17.8933 93.3777 18.1467 93.1644 18.36C92.951 18.5733 92.6977 18.68 92.4044 18.68H81.2844V21.2H93.6044C93.8977 21.2 94.151 21.3067 94.3644 21.52C94.5777 21.7333 94.6844 21.9867 94.6844 22.28V27.92C94.6844 28.2133 94.5777 28.4667 94.3644 28.68C94.151 28.8933 93.8977 29 93.6044 29H72.7644ZM118.426 29.4C115.813 29.4 113.519 29 111.546 28.2C109.599 27.4 108.053 26.2 106.906 24.6C105.786 22.9733 105.173 20.9733 105.066 18.6C105.039 17.5067 105.026 16.3467 105.026 15.12C105.026 13.8933 105.039 12.7067 105.066 11.56C105.173 9.21333 105.786 7.22666 106.906 5.6C108.026 3.97333 109.573 2.73333 111.546 1.88C113.519 1.02667 115.813 0.599998 118.426 0.599998C121.039 0.599998 123.333 1.02667 125.306 1.88C127.279 2.73333 128.826 3.97333 129.946 5.6C131.093 7.22666 131.706 9.21333 131.786 11.56C131.839 12.7067 131.866 13.8933 131.866 15.12C131.866 16.3467 131.839 17.5067 131.786 18.6C131.679 20.9733 131.053 22.9733 129.906 24.6C128.786 26.2 127.239 27.4 125.266 28.2C123.319 29 121.039 29.4 118.426 29.4ZM118.426 21.6C119.306 21.6 120.013 21.3467 120.546 20.84C121.079 20.3067 121.359 19.48 121.386 18.36C121.439 17.2133 121.466 16.08 121.466 14.96C121.466 13.84 121.439 12.7333 121.386 11.64C121.359 10.8933 121.213 10.28 120.946 9.8C120.706 9.32 120.373 8.97333 119.946 8.76C119.519 8.52 119.013 8.4 118.426 8.4C117.866 8.4 117.359 8.52 116.906 8.76C116.479 8.97333 116.133 9.32 115.866 9.8C115.626 10.28 115.493 10.8933 115.466 11.64C115.439 12.7333 115.426 13.84 115.426 14.96C115.426 16.08 115.439 17.2133 115.466 18.36C115.519 19.48 115.799 20.3067 116.306 20.84C116.839 21.3467 117.546 21.6 118.426 21.6ZM136.553 29C136.26 29 136.007 28.8933 135.793 28.68C135.58 28.4667 135.473 28.2133 135.473 27.92V2.08C135.473 1.78667 135.58 1.53333 135.793 1.32C136.007 1.10666 136.26 0.999998 136.553 0.999998H156.713C157.007 0.999998 157.26 1.10666 157.473 1.32C157.687 1.53333 157.793 1.78667 157.793 2.08V8.16C157.793 8.45333 157.687 8.70666 157.473 8.92C157.26 9.13333 157.007 9.24 156.713 9.24H145.273V12.2H155.913C156.207 12.2 156.46 12.3067 156.673 12.52C156.887 12.7333 156.993 12.9867 156.993 13.28V19.32C156.993 19.6133 156.887 19.8667 156.673 20.08C156.46 20.2933 156.207 20.4 155.913 20.4H145.273V27.92C145.273 28.2133 145.167 28.4667 144.953 28.68C144.74 28.8933 144.487 29 144.193 29H136.553Z" fill="white"/>
<path d="M180.968 29.4C178.274 29.4 175.941 29 173.968 28.2C171.994 27.4 170.448 26.1867 169.328 24.56C168.208 22.9333 167.594 20.88 167.488 18.4C167.461 17.3067 167.448 16.12 167.448 14.84C167.448 13.56 167.461 12.3467 167.488 11.2C167.594 8.82667 168.208 6.86667 169.328 5.32C170.474 3.74667 172.048 2.57333 174.048 1.8C176.048 0.999999 178.354 0.599998 180.968 0.599998C183.074 0.599998 184.968 0.839999 186.648 1.32C188.328 1.77333 189.768 2.41333 190.968 3.24C192.168 4.06667 193.088 5.02667 193.728 6.12C194.368 7.18667 194.701 8.32 194.728 9.52C194.728 9.76 194.634 9.97333 194.448 10.16C194.288 10.32 194.088 10.4 193.848 10.4H185.008C184.714 10.4 184.474 10.36 184.288 10.28C184.128 10.2 183.981 10.0933 183.848 9.96C183.741 9.82667 183.581 9.64 183.368 9.4C183.181 9.13333 182.901 8.90667 182.528 8.72C182.154 8.50667 181.634 8.4 180.968 8.4C179.981 8.4 179.234 8.65333 178.728 9.16C178.221 9.64 177.941 10.3867 177.888 11.4C177.808 13.6133 177.808 15.88 177.888 18.2C177.941 19.4 178.248 20.2667 178.808 20.8C179.368 21.3333 180.141 21.6 181.128 21.6C181.794 21.6 182.381 21.5067 182.888 21.32C183.394 21.1333 183.794 20.8267 184.088 20.4C184.381 19.9733 184.528 19.4267 184.528 18.76V18.72H182.648C182.354 18.72 182.101 18.6133 181.888 18.4C181.674 18.1867 181.568 17.9333 181.568 17.64V13.2C181.568 12.9067 181.674 12.6533 181.888 12.44C182.101 12.2267 182.354 12.12 182.648 12.12H193.648C193.941 12.12 194.194 12.2267 194.408 12.44C194.621 12.6533 194.728 12.9067 194.728 13.2V18.4C194.728 20.8 194.141 22.8133 192.968 24.44C191.794 26.0667 190.168 27.3067 188.088 28.16C186.034 28.9867 183.661 29.4 180.968 29.4ZM210.965 29.4C208.352 29.4 206.058 29 204.085 28.2C202.138 27.4 200.592 26.2 199.445 24.6C198.325 22.9733 197.712 20.9733 197.605 18.6C197.578 17.5067 197.565 16.3467 197.565 15.12C197.565 13.8933 197.578 12.7067 197.605 11.56C197.712 9.21333 198.325 7.22666 199.445 5.6C200.565 3.97333 202.112 2.73333 204.085 1.88C206.058 1.02667 208.352 0.599998 210.965 0.599998C213.578 0.599998 215.872 1.02667 217.845 1.88C219.818 2.73333 221.365 3.97333 222.485 5.6C223.632 7.22666 224.245 9.21333 224.325 11.56C224.378 12.7067 224.405 13.8933 224.405 15.12C224.405 16.3467 224.378 17.5067 224.325 18.6C224.218 20.9733 223.592 22.9733 222.445 24.6C221.325 26.2 219.778 27.4 217.805 28.2C215.858 29 213.578 29.4 210.965 29.4ZM210.965 21.6C211.845 21.6 212.552 21.3467 213.085 20.84C213.618 20.3067 213.898 19.48 213.925 18.36C213.978 17.2133 214.005 16.08 214.005 14.96C214.005 13.84 213.978 12.7333 213.925 11.64C213.898 10.8933 213.752 10.28 213.485 9.8C213.245 9.32 212.912 8.97333 212.485 8.76C212.058 8.52 211.552 8.4 210.965 8.4C210.405 8.4 209.898 8.52 209.445 8.76C209.018 8.97333 208.672 9.32 208.405 9.8C208.165 10.28 208.032 10.8933 208.005 11.64C207.978 12.7333 207.965 13.84 207.965 14.96C207.965 16.08 207.978 17.2133 208.005 18.36C208.058 19.48 208.338 20.3067 208.845 20.84C209.378 21.3467 210.085 21.6 210.965 21.6ZM229.093 29C228.799 29 228.546 28.8933 228.333 28.68C228.119 28.4667 228.013 28.2133 228.013 27.92V2.08C228.013 1.78667 228.119 1.53333 228.333 1.32C228.546 1.10666 228.799 0.999998 229.093 0.999998H240.613C243.119 0.999998 245.359 1.42666 247.333 2.28C249.306 3.10667 250.879 4.33333 252.053 5.96C253.253 7.58666 253.893 9.6 253.973 12C254.026 13.1467 254.053 14.16 254.053 15.04C254.053 15.8933 254.026 16.8667 253.973 17.96C253.866 20.4667 253.253 22.5467 252.133 24.2C251.013 25.8267 249.479 27.04 247.533 27.84C245.613 28.6133 243.373 29 240.813 29H229.093ZM238.013 21.2H240.613C241.199 21.2 241.719 21.0933 242.173 20.88C242.653 20.64 243.039 20.28 243.333 19.8C243.626 19.32 243.786 18.7067 243.813 17.96C243.866 17.1867 243.893 16.4933 243.893 15.88C243.919 15.2667 243.919 14.6533 243.893 14.04C243.893 13.4 243.866 12.72 243.813 12C243.759 10.88 243.399 10.0667 242.733 9.56C242.093 9.05333 241.319 8.8 240.413 8.8H238.013V21.2ZM269.302 29.4C266.342 29.4 263.902 29 261.982 28.2C260.062 27.4 258.622 26.3467 257.662 25.04C256.702 23.7333 256.195 22.3467 256.142 20.88C256.142 20.64 256.222 20.44 256.382 20.28C256.569 20.0933 256.782 20 257.022 20H264.622C265.049 20 265.369 20.0667 265.582 20.2C265.822 20.3067 266.075 20.4667 266.342 20.68C266.609 20.8667 266.875 21.04 267.142 21.2C267.435 21.3333 267.755 21.44 268.102 21.52C268.475 21.5733 268.875 21.6 269.302 21.6C270.209 21.6 270.929 21.5067 271.462 21.32C272.022 21.1067 272.302 20.8267 272.302 20.48C272.302 20.16 272.142 19.8933 271.822 19.68C271.529 19.4667 271.009 19.28 270.262 19.12C269.515 18.9333 268.475 18.76 267.142 18.6C265.035 18.3067 263.209 17.8133 261.662 17.12C260.115 16.4267 258.915 15.48 258.062 14.28C257.235 13.0533 256.822 11.56 256.822 9.8C256.822 7.98667 257.329 6.38667 258.342 5C259.382 3.61333 260.809 2.53333 262.622 1.76C264.462 0.986665 266.595 0.599998 269.022 0.599998C271.022 0.599998 272.795 0.866665 274.342 1.4C275.889 1.90667 277.195 2.58667 278.262 3.44C279.329 4.26666 280.142 5.16 280.702 6.12C281.262 7.08 281.555 8 281.582 8.88C281.582 9.12 281.489 9.33333 281.302 9.52C281.142 9.68 280.955 9.76 280.742 9.76H272.742C272.369 9.76 272.062 9.70667 271.822 9.6C271.609 9.49333 271.382 9.33333 271.142 9.12C271.009 8.98667 270.755 8.84 270.382 8.68C270.035 8.49333 269.582 8.4 269.022 8.4C268.355 8.4 267.862 8.50667 267.542 8.72C267.249 8.90667 267.102 9.17333 267.102 9.52C267.102 9.76 267.222 9.98667 267.462 10.2C267.702 10.4133 268.142 10.6 268.782 10.76C269.422 10.92 270.342 11.08 271.542 11.24C274.209 11.56 276.342 12.08 277.942 12.8C279.569 13.4933 280.742 14.4267 281.462 15.6C282.209 16.7733 282.582 18.2267 282.582 19.96C282.582 21.9067 281.995 23.5867 280.822 25C279.675 26.4133 278.102 27.5067 276.102 28.28C274.102 29.0267 271.835 29.4 269.302 29.4Z" fill="#FF8D3A"/>
</svg>
