<svg width="171" height="101" viewBox="0 0 171 101" fill="none" xmlns="http://www.w3.org/2000/svg">
<path d="M3.28 37C2.98667 37 2.73333 36.8933 2.52 36.68C2.30667 36.4667 2.2 36.2133 2.2 35.92V10.08C2.2 9.78667 2.30667 9.53333 2.52 9.32C2.73333 9.10666 2.98667 9 3.28 9H15.12C18.96 9 21.96 9.86666 24.12 11.6C26.28 13.3333 27.36 15.7067 27.36 18.72C27.36 20.5067 26.9467 22.0667 26.12 23.4C25.32 24.7067 24.2933 25.76 23.04 26.56L27.96 35.68C28.04 35.84 28.08 35.9867 28.08 36.12C28.08 36.36 27.9867 36.5733 27.8 36.76C27.64 36.92 27.44 37 27.2 37H19C18.4667 37 18.0667 36.8667 17.8 36.6C17.5333 36.3333 17.36 36.1067 17.28 35.92L13.84 28.28H12.2V35.92C12.2 36.2133 12.0933 36.4667 11.88 36.68C11.6667 36.8933 11.4133 37 11.12 37H3.28ZM12.2 20.68H15.12C15.7333 20.68 16.1867 20.48 16.48 20.08C16.8 19.6533 16.96 19.1733 16.96 18.64C16.96 18.1067 16.8133 17.6133 16.52 17.16C16.2533 16.68 15.7867 16.44 15.12 16.44H12.2V20.68ZM33.7472 37C33.4539 37 33.2005 36.8933 32.9872 36.68C32.7739 36.4667 32.6672 36.2133 32.6672 35.92V10.08C32.6672 9.78667 32.7739 9.53333 32.9872 9.32C33.2005 9.10666 33.4539 9 33.7472 9H41.9072C42.2005 9 42.4539 9.10666 42.6672 9.32C42.8805 9.53333 42.9872 9.78667 42.9872 10.08V35.92C42.9872 36.2133 42.8805 36.4667 42.6672 36.68C42.4539 36.8933 42.2005 37 41.9072 37H33.7472ZM60.6738 37.4C57.7138 37.4 55.2738 37 53.3538 36.2C51.4338 35.4 49.9938 34.3467 49.0338 33.04C48.0738 31.7333 47.5671 30.3467 47.5138 28.88C47.5138 28.64 47.5938 28.44 47.7538 28.28C47.9404 28.0933 48.1538 28 48.3938 28H55.9938C56.4204 28 56.7404 28.0667 56.9538 28.2C57.1938 28.3067 57.4471 28.4667 57.7138 28.68C57.9804 28.8667 58.2471 29.04 58.5138 29.2C58.8071 29.3333 59.1271 29.44 59.4738 29.52C59.8471 29.5733 60.2471 29.6 60.6738 29.6C61.5804 29.6 62.3004 29.5067 62.8338 29.32C63.3938 29.1067 63.6738 28.8267 63.6738 28.48C63.6738 28.16 63.5138 27.8933 63.1938 27.68C62.9004 27.4667 62.3804 27.28 61.6338 27.12C60.8871 26.9333 59.8471 26.76 58.5138 26.6C56.4071 26.3067 54.5804 25.8133 53.0338 25.12C51.4871 24.4267 50.2871 23.48 49.4338 22.28C48.6071 21.0533 48.1938 19.56 48.1938 17.8C48.1938 15.9867 48.7004 14.3867 49.7138 13C50.7538 11.6133 52.1804 10.5333 53.9938 9.76C55.8338 8.98666 57.9671 8.6 60.3938 8.6C62.3938 8.6 64.1671 8.86666 65.7138 9.4C67.2604 9.90667 68.5671 10.5867 69.6338 11.44C70.7004 12.2667 71.5138 13.16 72.0738 14.12C72.6338 15.08 72.9271 16 72.9538 16.88C72.9538 17.12 72.8604 17.3333 72.6738 17.52C72.5138 17.68 72.3271 17.76 72.1138 17.76H64.1138C63.7404 17.76 63.4338 17.7067 63.1938 17.6C62.9804 17.4933 62.7538 17.3333 62.5138 17.12C62.3804 16.9867 62.1271 16.84 61.7538 16.68C61.4071 16.4933 60.9538 16.4 60.3938 16.4C59.7271 16.4 59.2338 16.5067 58.9138 16.72C58.6204 16.9067 58.4738 17.1733 58.4738 17.52C58.4738 17.76 58.5938 17.9867 58.8338 18.2C59.0738 18.4133 59.5138 18.6 60.1538 18.76C60.7938 18.92 61.7138 19.08 62.9138 19.24C65.5804 19.56 67.7138 20.08 69.3138 20.8C70.9404 21.4933 72.1138 22.4267 72.8338 23.6C73.5804 24.7733 73.9538 26.2267 73.9538 27.96C73.9538 29.9067 73.3671 31.5867 72.1938 33C71.0471 34.4133 69.4738 35.5067 67.4738 36.28C65.4738 37.0267 63.2071 37.4 60.6738 37.4ZM79.5644 37C79.271 37 79.0177 36.8933 78.8044 36.68C78.591 36.4667 78.4844 36.2133 78.4844 35.92V10.08C78.4844 9.78667 78.591 9.53333 78.8044 9.32C79.0177 9.10666 79.271 9 79.5644 9H100.084C100.378 9 100.631 9.10666 100.844 9.32C101.058 9.53333 101.164 9.78667 101.164 10.08V15.72C101.164 16.0133 101.058 16.2667 100.844 16.48C100.631 16.6933 100.378 16.8 100.084 16.8H88.0844V19.32H99.2044C99.4977 19.32 99.751 19.4267 99.9644 19.64C100.178 19.8533 100.284 20.1067 100.284 20.4V25.6C100.284 25.8933 100.178 26.1467 99.9644 26.36C99.751 26.5733 99.4977 26.68 99.2044 26.68H88.0844V29.2H100.404C100.698 29.2 100.951 29.3067 101.164 29.52C101.378 29.7333 101.484 29.9867 101.484 30.28V35.92C101.484 36.2133 101.378 36.4667 101.164 36.68C100.951 36.8933 100.698 37 100.404 37H79.5644ZM128.426 37.4C125.813 37.4 123.519 37 121.546 36.2C119.599 35.4 118.053 34.2 116.906 32.6C115.786 30.9733 115.173 28.9733 115.066 26.6C115.039 25.5067 115.026 24.3467 115.026 23.12C115.026 21.8933 115.039 20.7067 115.066 19.56C115.173 17.2133 115.786 15.2267 116.906 13.6C118.026 11.9733 119.573 10.7333 121.546 9.88C123.519 9.02667 125.813 8.6 128.426 8.6C131.039 8.6 133.333 9.02667 135.306 9.88C137.279 10.7333 138.826 11.9733 139.946 13.6C141.093 15.2267 141.706 17.2133 141.786 19.56C141.839 20.7067 141.866 21.8933 141.866 23.12C141.866 24.3467 141.839 25.5067 141.786 26.6C141.679 28.9733 141.053 30.9733 139.906 32.6C138.786 34.2 137.239 35.4 135.266 36.2C133.319 37 131.039 37.4 128.426 37.4ZM128.426 29.6C129.306 29.6 130.013 29.3467 130.546 28.84C131.079 28.3067 131.359 27.48 131.386 26.36C131.439 25.2133 131.466 24.08 131.466 22.96C131.466 21.84 131.439 20.7333 131.386 19.64C131.359 18.8933 131.213 18.28 130.946 17.8C130.706 17.32 130.373 16.9733 129.946 16.76C129.519 16.52 129.013 16.4 128.426 16.4C127.866 16.4 127.359 16.52 126.906 16.76C126.479 16.9733 126.133 17.32 125.866 17.8C125.626 18.28 125.493 18.8933 125.466 19.64C125.439 20.7333 125.426 21.84 125.426 22.96C125.426 24.08 125.439 25.2133 125.466 26.36C125.519 27.48 125.799 28.3067 126.306 28.84C126.839 29.3467 127.546 29.6 128.426 29.6ZM148.153 37C147.86 37 147.607 36.8933 147.393 36.68C147.18 36.4667 147.073 36.2133 147.073 35.92V10.08C147.073 9.78667 147.18 9.53333 147.393 9.32C147.607 9.10666 147.86 9 148.153 9H168.313C168.607 9 168.86 9.10666 169.073 9.32C169.287 9.53333 169.393 9.78667 169.393 10.08V16.16C169.393 16.4533 169.287 16.7067 169.073 16.92C168.86 17.1333 168.607 17.24 168.313 17.24H156.873V20.2H167.513C167.807 20.2 168.06 20.3067 168.273 20.52C168.487 20.7333 168.593 20.9867 168.593 21.28V27.32C168.593 27.6133 168.487 27.8667 168.273 28.08C168.06 28.2933 167.807 28.4 167.513 28.4H156.873V35.92C156.873 36.2133 156.767 36.4667 156.553 36.68C156.34 36.8933 156.087 37 155.793 37H148.153Z" fill="white"/>
<path d="M21.692 86.58C17.7867 86.58 14.4033 86 11.542 84.84C8.68067 83.68 6.438 81.9207 4.814 79.562C3.19 77.2033 2.30067 74.226 2.146 70.63C2.10733 69.0447 2.088 67.324 2.088 65.468C2.088 63.612 2.10733 61.8527 2.146 60.19C2.30067 56.7487 3.19 53.9067 4.814 51.664C6.47667 49.3827 8.758 47.6813 11.658 46.56C14.558 45.4 17.9027 44.82 21.692 44.82C24.7467 44.82 27.492 45.168 29.928 45.864C32.364 46.5213 34.452 47.4493 36.192 48.648C37.932 49.8467 39.266 51.2387 40.194 52.824C41.122 54.3707 41.6053 56.014 41.644 57.754C41.644 58.102 41.5087 58.4113 41.238 58.682C41.006 58.914 40.716 59.03 40.368 59.03H27.55C27.1247 59.03 26.7767 58.972 26.506 58.856C26.274 58.74 26.0613 58.5853 25.868 58.392C25.7133 58.1987 25.4813 57.928 25.172 57.58C24.9013 57.1933 24.4953 56.8647 23.954 56.594C23.4127 56.2847 22.6587 56.13 21.692 56.13C20.2613 56.13 19.1787 56.4973 18.444 57.232C17.7093 57.928 17.3033 59.0107 17.226 60.48C17.11 63.6893 17.11 66.976 17.226 70.34C17.3033 72.08 17.748 73.3367 18.56 74.11C19.372 74.8833 20.4933 75.27 21.924 75.27C22.8907 75.27 23.7413 75.1347 24.476 74.864C25.2107 74.5933 25.7907 74.1487 26.216 73.53C26.6413 72.9113 26.854 72.1187 26.854 71.152V71.094H24.128C23.7027 71.094 23.3353 70.9393 23.026 70.63C22.7167 70.3207 22.562 69.9533 22.562 69.528V63.09C22.562 62.6647 22.7167 62.2973 23.026 61.988C23.3353 61.6787 23.7027 61.524 24.128 61.524H40.078C40.5033 61.524 40.8707 61.6787 41.18 61.988C41.4893 62.2973 41.644 62.6647 41.644 63.09V70.63C41.644 74.11 40.7933 77.0293 39.092 79.388C37.3907 81.7467 35.032 83.5447 32.016 84.782C29.0387 85.9807 25.5973 86.58 21.692 86.58ZM65.1879 86.58C61.3986 86.58 58.0733 86 55.2119 84.84C52.3893 83.68 50.1466 81.94 48.4839 79.62C46.8599 77.2613 45.9706 74.3613 45.8159 70.92C45.7773 69.3347 45.7579 67.6527 45.7579 65.874C45.7579 64.0953 45.7773 62.3747 45.8159 60.712C45.9706 57.3093 46.8599 54.4287 48.4839 52.07C50.1079 49.7113 52.3506 47.9133 55.2119 46.676C58.0733 45.4387 61.3986 44.82 65.1879 44.82C68.9773 44.82 72.3026 45.4387 75.1639 46.676C78.0253 47.9133 80.2679 49.7113 81.8919 52.07C83.5546 54.4287 84.4439 57.3093 84.5599 60.712C84.6373 62.3747 84.6759 64.0953 84.6759 65.874C84.6759 67.6527 84.6373 69.3347 84.5599 70.92C84.4053 74.3613 83.4966 77.2613 81.8339 79.62C80.2099 81.94 77.9673 83.68 75.1059 84.84C72.2833 86 68.9773 86.58 65.1879 86.58ZM65.1879 75.27C66.4639 75.27 67.4886 74.9027 68.2619 74.168C69.0353 73.3947 69.4413 72.196 69.4799 70.572C69.5573 68.9093 69.5959 67.266 69.5959 65.642C69.5959 64.018 69.5573 62.4133 69.4799 60.828C69.4413 59.7453 69.2286 58.856 68.8419 58.16C68.4939 57.464 68.0106 56.9613 67.3919 56.652C66.7733 56.304 66.0386 56.13 65.1879 56.13C64.3759 56.13 63.6413 56.304 62.9839 56.652C62.3653 56.9613 61.8626 57.464 61.4759 58.16C61.1279 58.856 60.9346 59.7453 60.8959 60.828C60.8573 62.4133 60.8379 64.018 60.8379 65.642C60.8379 67.266 60.8573 68.9093 60.8959 70.572C60.9733 72.196 61.3793 73.3947 62.1139 74.168C62.8873 74.9027 63.9119 75.27 65.1879 75.27ZM91.4728 86C91.0475 86 90.6801 85.8453 90.3708 85.536C90.0615 85.2267 89.9068 84.8593 89.9068 84.434V46.966C89.9068 46.5407 90.0615 46.1733 90.3708 45.864C90.6801 45.5547 91.0475 45.4 91.4728 45.4H108.177C111.811 45.4 115.059 46.0187 117.921 47.256C120.782 48.4547 123.063 50.2333 124.765 52.592C126.505 54.9507 127.433 57.87 127.549 61.35C127.626 63.0127 127.665 64.482 127.665 65.758C127.665 66.9953 127.626 68.4067 127.549 69.992C127.394 73.6267 126.505 76.6427 124.881 79.04C123.257 81.3987 121.033 83.158 118.211 84.318C115.427 85.4393 112.179 86 108.467 86H91.4728ZM104.407 74.69H108.177C109.027 74.69 109.781 74.5353 110.439 74.226C111.135 73.878 111.695 73.356 112.121 72.66C112.546 71.964 112.778 71.0747 112.817 69.992C112.894 68.8707 112.933 67.8653 112.933 66.976C112.971 66.0867 112.971 65.1973 112.933 64.308C112.933 63.38 112.894 62.394 112.817 61.35C112.739 59.726 112.217 58.5467 111.251 57.812C110.323 57.0773 109.201 56.71 107.887 56.71H104.407V74.69ZM149.776 86.58C145.484 86.58 141.946 86 139.162 84.84C136.378 83.68 134.29 82.1527 132.898 80.258C131.506 78.3633 130.772 76.3527 130.694 74.226C130.694 73.878 130.81 73.588 131.042 73.356C131.313 73.0853 131.622 72.95 131.97 72.95H142.99C143.609 72.95 144.073 73.0467 144.382 73.24C144.73 73.3947 145.098 73.6267 145.484 73.936C145.871 74.2067 146.258 74.458 146.644 74.69C147.07 74.8833 147.534 75.038 148.036 75.154C148.578 75.2313 149.158 75.27 149.776 75.27C151.091 75.27 152.135 75.1347 152.908 74.864C153.72 74.5547 154.126 74.1487 154.126 73.646C154.126 73.182 153.894 72.7953 153.43 72.486C153.005 72.1767 152.251 71.906 151.168 71.674C150.086 71.4033 148.578 71.152 146.644 70.92C143.59 70.4947 140.941 69.7793 138.698 68.774C136.456 67.7687 134.716 66.396 133.478 64.656C132.28 62.8773 131.68 60.712 131.68 58.16C131.68 55.5307 132.415 53.2107 133.884 51.2C135.392 49.1893 137.461 47.6233 140.09 46.502C142.758 45.3807 145.852 44.82 149.37 44.82C152.27 44.82 154.842 45.2067 157.084 45.98C159.327 46.7147 161.222 47.7007 162.768 48.938C164.315 50.1367 165.494 51.432 166.306 52.824C167.118 54.216 167.544 55.55 167.582 56.826C167.582 57.174 167.447 57.4833 167.176 57.754C166.944 57.986 166.674 58.102 166.364 58.102H154.764C154.223 58.102 153.778 58.0247 153.43 57.87C153.121 57.7153 152.792 57.4833 152.444 57.174C152.251 56.9807 151.884 56.768 151.342 56.536C150.84 56.2653 150.182 56.13 149.37 56.13C148.404 56.13 147.688 56.2847 147.224 56.594C146.799 56.8647 146.586 57.2513 146.586 57.754C146.586 58.102 146.76 58.4307 147.108 58.74C147.456 59.0493 148.094 59.32 149.022 59.552C149.95 59.784 151.284 60.016 153.024 60.248C156.891 60.712 159.984 61.466 162.304 62.51C164.663 63.5153 166.364 64.8687 167.408 66.57C168.491 68.2713 169.032 70.3787 169.032 72.892C169.032 75.7147 168.182 78.1507 166.48 80.2C164.818 82.2493 162.536 83.8347 159.636 84.956C156.736 86.0387 153.45 86.58 149.776 86.58Z" fill="#FF8D3A"/>
</svg>
